<svg width="67" height="67" viewBox="0 0 67 67" fill="none" xmlns="http://www.w3.org/2000/svg">
<path d="M42.2283 16.8024L55.3535 30.5426C56.1387 31.3016 56.5312 32.3354 56.5312 33.4739C56.5312 34.6123 56.1387 35.633 55.3535 36.4051L42.2283 50.1977C40.6711 51.8334 38.1324 51.8334 36.5752 50.1977C35.018 48.5619 35.018 45.9186 36.5752 44.2828L42.8826 37.6875H14.4861C12.2615 37.6875 10.4688 35.8162 10.4688 33.5C10.4688 31.1838 12.2615 29.3125 14.473 29.3125H42.8695L36.5621 22.7172C35.0049 21.0815 35.0049 18.4381 36.5621 16.8024C38.1324 15.1666 40.658 15.1666 42.2283 16.8024Z" fill="white"/>
</svg>
