<svg width="567" height="317" viewBox="0 0 567 317" fill="none" xmlns="http://www.w3.org/2000/svg">
<g clip-path="url(#clip0_268_265)">
<path d="M119.326 315.793H32.7019C32.7019 315.793 30.946 290.068 41.3347 289.776C51.7234 289.484 50.5528 301.177 63.576 285.099C76.5991 269.021 92.4014 269.898 94.45 279.399C96.4985 288.9 90.4996 296.5 101.474 294.161C112.448 291.822 128.251 297.961 119.326 315.793Z" fill="#E6E6E6"/>
<path d="M74.5514 315.799L74.2588 315.787C74.9408 298.851 78.4914 287.97 81.3507 281.822C84.4546 275.148 87.4458 272.446 87.476 272.42L87.6707 272.638C87.6411 272.665 84.6851 275.339 81.6058 281.968C78.7625 288.088 75.231 298.926 74.5514 315.799Z" fill="white"/>
<path d="M105.903 315.834L105.622 315.752C107.801 308.574 111.728 302.047 117.051 296.758L117.248 296.974C111.964 302.227 108.066 308.707 105.903 315.834Z" fill="white"/>
<path d="M46.3461 315.813L46.0559 315.773C47.0004 309.423 46.0011 302.937 43.1892 297.164C42.0365 294.743 40.5105 292.517 38.667 290.569L38.8697 290.358C40.7382 292.33 42.2851 294.583 43.4541 297.034C46.2913 302.859 47.2994 309.406 46.3461 315.813Z" fill="white"/>
<path d="M131.082 316.184H23.3594L23.3348 315.819C23.2731 314.913 21.8986 293.524 28.8365 285.892C29.5249 285.085 30.3746 284.432 31.3309 283.974C32.2873 283.515 33.3292 283.262 34.3895 283.23C38.9116 283.101 41.7537 284.794 44.0462 286.151C48.3669 288.712 51.2207 290.403 61.5989 277.591C72.8409 263.711 84.9713 260.724 91.9444 262.385C96.4499 263.458 99.5551 266.49 100.464 270.705C101.326 274.696 101.05 278.446 100.83 281.46C100.594 284.684 100.408 287.23 101.734 288.385C102.843 289.348 105.049 289.435 108.684 288.661C116.077 287.085 126.395 288.433 131.574 295.117C134.36 298.713 136.555 305.249 131.19 315.968L131.082 316.184ZM24.0944 315.402H130.597C134.595 307.3 134.72 300.455 130.955 295.596C126.204 289.464 116.237 287.851 108.847 289.426C104.897 290.267 102.544 290.128 101.219 288.975C99.5982 287.564 99.7972 284.846 100.049 281.405C100.265 278.442 100.535 274.754 99.698 270.872C98.8552 266.964 95.9626 264.148 91.762 263.148C85.0114 261.539 73.2174 264.488 62.207 278.084C51.4043 291.422 48.1494 289.494 43.6464 286.823C41.3255 285.449 38.6911 283.89 34.411 284.011C33.4564 284.042 32.5188 284.271 31.6585 284.686C30.7982 285.1 30.0342 285.69 29.4157 286.417C23.182 293.276 23.9422 312.51 24.095 315.402H24.0944Z" fill="#2F2E41"/>
<path d="M483.06 316.618H376.958L376.937 316.025L371.871 171.288H488.146L483.06 316.618ZM378.148 315.388H481.87L486.871 172.518H373.146L378.148 315.388Z" fill="#3F3D56"/>
<path d="M402.268 198.105H394.197V297.864H402.268V198.105Z" fill="#3F3D56"/>
<path d="M434.044 198.105H425.974V297.864H434.044V198.105Z" fill="#3F3D56"/>
<path d="M465.819 198.105H457.749V297.864H465.819V198.105Z" fill="#3F3D56"/>
<path d="M508.045 172.215L507.429 172.212L351.576 171.498L351.695 150.115L352.311 150.118L508.164 150.833L508.045 172.215ZM352.815 170.272L506.82 170.978L506.925 152.059L429.923 151.705L352.92 151.352L352.815 170.272Z" fill="#3F3D56"/>
<path d="M433.252 112.558C428.72 112.534 424.275 113.811 420.444 116.236C416.614 118.661 413.558 122.132 411.641 126.239C409.724 130.345 409.025 134.914 409.627 139.404C410.23 143.893 412.108 148.114 415.04 151.566L422.471 151.6C419.191 149.33 416.725 146.07 415.433 142.296C414.142 138.523 414.094 134.434 415.297 130.628C416.499 126.823 418.888 123.501 422.114 121.149C425.34 118.796 429.234 117.538 433.225 117.557C437.217 117.576 441.096 118.871 444.295 121.254C447.494 123.637 449.845 126.981 451.003 130.798C452.161 134.615 452.066 138.703 450.732 142.464C449.398 146.226 446.894 149.462 443.588 151.7L451.019 151.735C453.99 148.311 455.917 144.108 456.571 139.625C457.225 135.141 456.579 130.566 454.709 126.441C452.839 122.317 449.824 118.816 446.021 116.355C442.219 113.893 437.789 112.575 433.257 112.555L433.252 112.558Z" fill="#3F3D56"/>
<path d="M560.036 315.769H0V317H560.036V315.769Z" fill="#3F3D56"/>
<path d="M113.008 307.371H121.735L125.889 272.799H113.005L113.008 307.371Z" fill="#FEB8B8"/>
<path d="M138.565 315.692H111.138V304.809H128.115C130.887 304.809 133.545 305.94 135.505 307.953C137.464 309.965 138.565 312.695 138.565 315.542V315.692Z" fill="#2F2E41"/>
<path d="M116.075 253.8L110.055 260.29L82.8193 239.534L91.7034 229.956L116.075 253.8Z" fill="#FEB8B8"/>
<path d="M103.854 263.263L115.568 250.639L123.24 258.149L104.315 278.543L104.209 278.439C103.216 277.466 102.418 276.302 101.863 275.013C101.307 273.725 101.004 272.336 100.971 270.927C100.938 269.517 101.176 268.115 101.67 266.8C102.165 265.486 102.907 264.283 103.854 263.263Z" fill="#2F2E41"/>
<path d="M176.819 159.087C177.371 158.174 177.722 157.148 177.847 156.081C177.971 155.014 177.867 153.932 177.54 152.912C177.214 151.891 176.673 150.956 175.957 150.172C175.241 149.389 174.366 148.777 173.394 148.378L139.131 58.6934L125.775 66.9063L163.837 152.943C163.293 154.665 163.383 156.531 164.09 158.189C164.796 159.847 166.07 161.181 167.671 161.938C169.271 162.695 171.086 162.823 172.772 162.298C174.458 161.772 175.898 160.63 176.819 159.087Z" fill="#FEB8B8"/>
<path d="M46.767 165.515C47.811 165.438 48.8259 165.127 49.7402 164.604C50.6546 164.081 51.446 163.358 52.0589 162.487C52.6718 161.615 53.0912 160.616 53.2874 159.561C53.4837 158.505 53.4521 157.417 53.1949 156.375L103.742 75.2193L89.426 68.9419L43.983 151.116C42.3049 151.673 40.8843 152.844 39.9911 154.406C39.0979 155.967 38.7942 157.812 39.1376 159.588C39.4811 161.365 40.4478 162.95 41.8543 164.043C43.2607 165.136 45.0089 165.661 46.767 165.517V165.515Z" fill="#FEB8B8"/>
<path d="M138.794 150.106L129.847 286.678L108.465 284.741L104.063 183.982L92.1148 227.255L66.3312 229.192L76.5366 143.647L138.794 150.106Z" fill="#2F2E41"/>
<path d="M88.3415 220.796L92.1166 227.255L118.526 245.985L99.6603 256.32C99.6603 256.32 63.1859 235.652 66.3301 229.193L88.3415 220.796Z" fill="#2F2E41"/>
<path d="M157.518 94.8506L150.075 73.3106C148.419 68.5178 145.854 64.11 142.528 60.3421C139.203 56.5742 135.182 53.521 130.7 51.3594C120.626 47.5477 109.67 46.9317 99.2505 49.5913L96.542 50.2818C89.3194 52.0797 82.5523 55.4364 76.6907 60.1287C72.1043 63.8422 67.978 68.5441 67.6106 73.6017C67.6088 73.6124 67.6058 73.623 67.6017 73.633C66.3313 79.3516 65.7027 109.062 65.7027 109.062H76.9083L75.1358 149.106L75.279 148.816C75.279 148.816 139.909 161.377 139.909 154.918V113.581L141.234 98.614L157.518 94.8506Z" fill="#CCCCCC"/>
<path d="M97.1912 43.9918C87.2997 43.9918 79.2809 35.7563 79.2809 25.5972C79.2809 15.4382 87.2997 7.20264 97.1912 7.20264C107.083 7.20264 115.102 15.4382 115.102 25.5972C115.102 35.7563 107.083 43.9918 97.1912 43.9918Z" fill="#FEB8B8"/>
<path d="M94.5084 17.3481L80.6015 17.9205C78.8518 17.9149 76.9415 17.8515 75.6088 16.6896C73.6014 14.9362 73.9375 11.6277 75.0126 9.15611C78.0087 2.27437 84.6919 -0.191045 92.0306 0.0114313C99.3693 0.213908 107.059 2.76855 111.011 9.1198C114.963 15.471 116.031 23.4913 114.542 30.8716C112.822 27.1188 110.172 23.8953 106.859 21.5227C103.546 19.1501 99.6855 17.7116 95.662 17.3506L94.5084 17.3481Z" fill="#2F2E41"/>
</g>
<defs>
<clipPath id="clip0_268_265">
<rect width="567" height="317" fill="white"/>
</clipPath>
</defs>
</svg>
