<svg width="305" height="305" viewBox="0 0 305 305" fill="none" xmlns="http://www.w3.org/2000/svg">
<path d="M276.406 190.625H28.5938C26.0659 190.625 23.6416 189.621 21.8541 187.833C20.0667 186.046 19.0625 183.622 19.0625 181.094V152.5C19.0625 149.972 20.0667 147.548 21.8541 145.76C23.6416 143.973 26.0659 142.969 28.5938 142.969C31.1216 142.969 33.5459 143.973 35.3334 145.76C37.1208 147.548 38.125 149.972 38.125 152.5V171.562H266.875V152.5C266.875 149.972 267.879 147.548 269.667 145.76C271.454 143.973 273.878 142.969 276.406 142.969C278.934 142.969 281.358 143.973 283.146 145.76C284.933 147.548 285.938 149.972 285.938 152.5V181.094C285.938 183.622 284.933 186.046 283.146 187.833C281.358 189.621 278.934 190.625 276.406 190.625Z" fill="#393E46"/>
<path d="M171.562 285.938H133.438C130.91 285.938 128.485 284.933 126.698 283.146C124.91 281.358 123.906 278.934 123.906 276.406V181.094C123.906 178.566 124.91 176.142 126.698 174.354C128.485 172.567 130.91 171.562 133.438 171.562H171.562C174.09 171.562 176.515 172.567 178.302 174.354C180.09 176.142 181.094 178.566 181.094 181.094V276.406C181.094 278.934 180.09 281.358 178.302 283.146C176.515 284.933 174.09 285.938 171.562 285.938ZM142.969 266.875H162.031V190.625H142.969V266.875Z" fill="#393E46"/>
<path d="M200.156 285.938H104.844C102.316 285.938 99.8916 284.933 98.1041 283.146C96.3167 281.358 95.3125 278.934 95.3125 276.406C95.3125 273.878 96.3167 271.454 98.1041 269.667C99.8916 267.879 102.316 266.875 104.844 266.875H200.156C202.684 266.875 205.108 267.879 206.896 269.667C208.683 271.454 209.688 273.878 209.688 276.406C209.688 278.934 208.683 281.358 206.896 283.146C205.108 284.933 202.684 285.938 200.156 285.938Z" fill="#393E46"/>
<path d="M276.406 162.031H28.5939C26.066 162.031 23.6417 161.027 21.8542 159.24C20.0668 157.452 19.0626 155.028 19.0626 152.5V66.7187C18.8217 60.3958 19.8896 54.0913 22.1993 48.2003C24.509 42.3094 28.0108 36.9591 32.485 32.4849C36.9592 28.0107 42.3095 24.5089 48.2004 22.1992C54.0914 19.8895 60.3959 18.8216 66.7189 19.0625H238.281C250.921 19.0625 263.042 24.0834 271.979 33.0207C280.917 41.958 285.938 54.0795 285.938 66.7187V152.5C285.938 155.028 284.933 157.452 283.146 159.24C281.359 161.027 278.934 162.031 276.406 162.031ZM38.1251 142.969H266.875V66.7187C266.875 59.1352 263.863 51.8623 258.5 46.4999C253.138 41.1375 245.865 38.125 238.281 38.125H66.7189C62.9133 37.9337 59.11 38.5423 55.5542 39.9116C51.9984 41.2809 48.7691 43.3804 46.0748 46.0747C43.3805 48.769 41.281 51.9983 39.9117 55.5541C38.5424 59.1099 37.9338 62.9132 38.1251 66.7187V142.969Z" fill="#393E46"/>
<path d="M66.7189 19.0625C60.3959 18.8216 54.0914 19.8895 48.2004 22.1992C42.3095 24.5089 36.9592 28.0107 32.485 32.4849C28.0108 36.9591 24.509 42.3094 22.1993 48.2003C19.8896 54.0913 18.8217 60.3958 19.0626 66.7187V152.5C19.0626 155.028 20.0668 157.452 21.8542 159.24C23.6417 161.027 26.066 162.031 28.5939 162.031H133.438C135.965 162.031 138.39 161.027 140.177 159.24C141.965 157.452 142.969 155.028 142.969 152.5V95.3125C142.969 43.8437 139.728 19.0625 66.7189 19.0625Z" fill="#393E46"/>
<path d="M133.438 181.094C133.438 181.094 140.586 219.219 171.562 234.755V181.094H133.438Z" fill="#393E46"/>
</svg>
