<svg width="227" height="90" viewBox="0 0 227 90" fill="none" xmlns="http://www.w3.org/2000/svg">
<path d="M92.9069 61V27.4H113.595V33.352H99.0509V40.504H110.283V46.456H99.0509V61H92.9069ZM126.422 61.48C123.814 61.48 121.59 60.912 119.75 59.776C117.91 58.64 116.502 57.128 115.526 55.24C114.566 53.352 114.086 51.288 114.086 49.048C114.086 46.792 114.566 44.712 115.526 42.808C116.502 40.904 117.91 39.384 119.75 38.248C121.59 37.096 123.814 36.52 126.422 36.52C129.03 36.52 131.254 37.096 133.094 38.248C134.934 39.384 136.334 40.904 137.294 42.808C138.27 44.712 138.758 46.792 138.758 49.048C138.758 51.288 138.27 53.352 137.294 55.24C136.334 57.128 134.934 58.64 133.094 59.776C131.254 60.912 129.03 61.48 126.422 61.48ZM126.422 56.584C128.422 56.584 129.958 55.888 131.03 54.496C132.118 53.088 132.662 51.272 132.662 49.048C132.662 46.792 132.118 44.96 131.03 43.552C129.958 42.128 128.422 41.416 126.422 41.416C124.438 41.416 122.902 42.128 121.814 43.552C120.726 44.96 120.182 46.792 120.182 49.048C120.182 51.272 120.726 53.088 121.814 54.496C122.902 55.888 124.438 56.584 126.422 56.584ZM150.444 61.48C148.94 61.48 147.716 61.176 146.772 60.568C145.828 59.944 145.132 59.152 144.684 58.192C144.236 57.232 144.012 56.232 144.012 55.192V41.896H140.604L141.132 37H144.012V31.72L149.964 31.096V37H155.244V41.896H149.964V52.744C149.964 53.96 150.036 54.84 150.18 55.384C150.324 55.912 150.652 56.248 151.164 56.392C151.676 56.52 152.492 56.584 153.612 56.584H155.244L154.716 61.48H150.444ZM164.304 61.48C163.024 61.48 161.856 61.2 160.8 60.64C159.744 60.064 158.904 59.24 158.28 58.168C157.656 57.096 157.344 55.8 157.344 54.28C157.344 52.92 157.656 51.76 158.28 50.8C158.92 49.824 159.752 49.016 160.776 48.376C161.816 47.72 162.936 47.208 164.136 46.84C165.352 46.456 166.544 46.176 167.712 46C168.896 45.824 169.936 45.72 170.832 45.688C170.768 44.312 170.416 43.312 169.776 42.688C169.136 42.064 168.048 41.752 166.512 41.752C165.44 41.752 164.392 41.904 163.368 42.208C162.36 42.496 161.216 42.952 159.936 43.576L159.408 38.728C160.848 38.024 162.288 37.496 163.728 37.144C165.184 36.792 166.656 36.616 168.144 36.616C169.936 36.616 171.48 36.936 172.776 37.576C174.072 38.216 175.072 39.248 175.776 40.672C176.48 42.08 176.832 43.944 176.832 46.264V52.744C176.832 53.944 176.888 54.816 177 55.36C177.112 55.888 177.32 56.224 177.624 56.368C177.928 56.512 178.368 56.584 178.944 56.584H179.712L179.184 61.48H177.024C176.128 61.48 175.328 61.36 174.624 61.12C173.936 60.896 173.344 60.576 172.848 60.16C172.352 59.744 171.952 59.256 171.648 58.696C170.864 59.576 169.8 60.264 168.456 60.76C167.128 61.24 165.744 61.48 164.304 61.48ZM166.8 56.92C167.328 56.92 167.984 56.784 168.768 56.512C169.552 56.224 170.256 55.784 170.88 55.192V49.72C169.76 49.768 168.64 49.952 167.52 50.272C166.4 50.592 165.464 51.064 164.712 51.688C163.96 52.312 163.584 53.096 163.584 54.04C163.584 55.016 163.84 55.744 164.352 56.224C164.864 56.688 165.68 56.92 166.8 56.92ZM181.106 61L194.114 39.88L194.786 42.04H182.21V37H202.082L189.074 58.12L188.162 55.96H202.178V61H181.106ZM210.851 61.48C209.571 61.48 208.403 61.2 207.347 60.64C206.291 60.064 205.451 59.24 204.827 58.168C204.203 57.096 203.891 55.8 203.891 54.28C203.891 52.92 204.203 51.76 204.827 50.8C205.467 49.824 206.299 49.016 207.323 48.376C208.363 47.72 209.483 47.208 210.683 46.84C211.899 46.456 213.091 46.176 214.259 46C215.443 45.824 216.483 45.72 217.379 45.688C217.315 44.312 216.963 43.312 216.323 42.688C215.683 42.064 214.595 41.752 213.059 41.752C211.987 41.752 210.939 41.904 209.915 42.208C208.907 42.496 207.763 42.952 206.483 43.576L205.955 38.728C207.395 38.024 208.835 37.496 210.275 37.144C211.731 36.792 213.203 36.616 214.691 36.616C216.483 36.616 218.027 36.936 219.323 37.576C220.619 38.216 221.619 39.248 222.323 40.672C223.027 42.08 223.379 43.944 223.379 46.264V52.744C223.379 53.944 223.435 54.816 223.547 55.36C223.659 55.888 223.867 56.224 224.171 56.368C224.475 56.512 224.915 56.584 225.491 56.584H226.259L225.731 61.48H223.571C222.675 61.48 221.875 61.36 221.171 61.12C220.483 60.896 219.891 60.576 219.395 60.16C218.899 59.744 218.499 59.256 218.195 58.696C217.411 59.576 216.347 60.264 215.003 60.76C213.675 61.24 212.291 61.48 210.851 61.48ZM213.347 56.92C213.875 56.92 214.531 56.784 215.315 56.512C216.099 56.224 216.803 55.784 217.427 55.192V49.72C216.307 49.768 215.187 49.952 214.067 50.272C212.947 50.592 212.011 51.064 211.259 51.688C210.507 52.312 210.131 53.096 210.131 54.04C210.131 55.016 210.387 55.744 210.899 56.224C211.411 56.688 212.227 56.92 213.347 56.92Z" fill="black"/>
<path d="M92.9069 61H91.9069V62H92.9069V61ZM92.9069 27.4V26.4H91.9069V27.4H92.9069ZM113.595 27.4H114.595V26.4H113.595V27.4ZM113.595 33.352V34.352H114.595V33.352H113.595ZM99.0509 33.352V32.352H98.0509V33.352H99.0509ZM99.0509 40.504H98.0509V41.504H99.0509V40.504ZM110.283 40.504H111.283V39.504H110.283V40.504ZM110.283 46.456V47.456H111.283V46.456H110.283ZM99.0509 46.456V45.456H98.0509V46.456H99.0509ZM99.0509 61V62H100.051V61H99.0509ZM93.9069 61V27.4H91.9069V61H93.9069ZM92.9069 28.4H113.595V26.4H92.9069V28.4ZM112.595 27.4V33.352H114.595V27.4H112.595ZM113.595 32.352H99.0509V34.352H113.595V32.352ZM98.0509 33.352V40.504H100.051V33.352H98.0509ZM99.0509 41.504H110.283V39.504H99.0509V41.504ZM109.283 40.504V46.456H111.283V40.504H109.283ZM110.283 45.456H99.0509V47.456H110.283V45.456ZM98.0509 46.456V61H100.051V46.456H98.0509ZM99.0509 60H92.9069V62H99.0509V60ZM119.75 59.776L120.276 58.9251L119.75 59.776ZM115.526 55.24L114.635 55.6933L114.638 55.6992L115.526 55.24ZM115.526 42.808L114.636 42.3518L114.633 42.3578L115.526 42.808ZM119.75 38.248L120.276 39.0989L120.281 39.0956L119.75 38.248ZM133.094 38.248L132.564 39.0956L132.569 39.0989L133.094 38.248ZM137.294 42.808L136.401 43.2582L136.404 43.2642L137.294 42.808ZM137.294 55.24L136.406 54.7808L136.403 54.7868L137.294 55.24ZM133.094 59.776L133.62 60.6269L133.094 59.776ZM131.03 54.496L130.239 53.8846L130.238 53.8858L131.03 54.496ZM131.03 43.552L130.231 44.1535L130.239 44.1634L131.03 43.552ZM121.814 43.552L122.605 44.1635L122.609 44.1591L121.814 43.552ZM121.814 54.496L121.023 55.1075L121.026 55.1118L121.814 54.496ZM126.422 60.48C123.961 60.48 121.928 59.9452 120.276 58.9251L119.225 60.6269C121.253 61.8788 123.667 62.48 126.422 62.48V60.48ZM120.276 58.9251C118.587 57.8826 117.306 56.5048 116.415 54.7808L114.638 55.6992C115.699 57.7512 117.233 59.3974 119.225 60.6269L120.276 58.9251ZM116.418 54.7868C115.533 53.0473 115.086 51.1398 115.086 49.048H113.086C113.086 51.4362 113.599 53.6567 114.635 55.6932L116.418 54.7868ZM115.086 49.048C115.086 46.9391 115.534 45.0145 116.419 43.2582L114.633 42.3578C113.599 44.4095 113.086 46.6449 113.086 49.048H115.086ZM116.416 43.2642C117.308 41.5244 118.589 40.1401 120.276 39.0989L119.225 37.3971C117.231 38.6279 115.696 40.2836 114.636 42.3518L116.416 43.2642ZM120.281 39.0956C121.932 38.0616 123.964 37.52 126.422 37.52V35.52C123.665 35.52 121.248 36.1304 119.22 37.4004L120.281 39.0956ZM126.422 37.52C128.881 37.52 130.912 38.0616 132.564 39.0956L133.625 37.4004C131.596 36.1304 129.18 35.52 126.422 35.52V37.52ZM132.569 39.0989C134.254 40.1393 135.526 41.5216 136.401 43.2582L138.187 42.3578C137.143 40.2864 135.614 38.6287 133.62 37.3971L132.569 39.0989ZM136.404 43.2642C137.304 45.0193 137.758 46.9417 137.758 49.048H139.758C139.758 46.6422 139.236 44.4047 138.184 42.3518L136.404 43.2642ZM137.758 49.048C137.758 51.1371 137.305 53.0424 136.406 54.7808L138.183 55.6992C139.236 53.6616 139.758 51.4389 139.758 49.048H137.758ZM136.403 54.7868C135.528 56.5075 134.256 57.8834 132.569 58.9251L133.62 60.6269C135.612 59.3966 137.141 57.7485 138.186 55.6932L136.403 54.7868ZM132.569 58.9251C130.917 59.9452 128.883 60.48 126.422 60.48V62.48C129.177 62.48 131.592 61.8788 133.62 60.6269L132.569 58.9251ZM126.422 57.584C128.684 57.584 130.533 56.7802 131.822 55.1062L130.238 53.8858C129.383 54.9958 128.161 55.584 126.422 55.584V57.584ZM131.821 55.1074C133.076 53.4845 133.662 51.437 133.662 49.048H131.662C131.662 51.107 131.161 52.6915 130.239 53.8846L131.821 55.1074ZM133.662 49.048C133.662 46.6308 133.077 44.5659 131.821 42.9406L130.239 44.1634C131.159 45.3541 131.662 46.9532 131.662 49.048H133.662ZM131.829 42.9506C130.543 41.2424 128.692 40.416 126.422 40.416V42.416C128.152 42.416 129.373 43.0136 130.231 44.1534L131.829 42.9506ZM126.422 40.416C124.165 40.416 122.319 41.2443 121.02 42.9449L122.609 44.1591C123.486 43.0117 124.711 42.416 126.422 42.416V40.416ZM121.023 42.9406C119.767 44.5659 119.182 46.6308 119.182 49.048H121.182C121.182 46.9532 121.685 45.3541 122.605 44.1634L121.023 42.9406ZM119.182 49.048C119.182 51.437 119.769 53.4845 121.023 55.1074L122.605 53.8846C121.684 52.6915 121.182 51.107 121.182 49.048H119.182ZM121.026 55.1118C122.329 56.7783 124.174 57.584 126.422 57.584V55.584C124.703 55.584 123.476 54.9977 122.602 53.8802L121.026 55.1118ZM146.772 60.568L146.22 61.4023L146.23 61.4087L146.772 60.568ZM144.684 58.192L145.59 57.7691L144.684 58.192ZM144.012 41.896H145.012V40.896H144.012V41.896ZM140.604 41.896L139.61 41.7888L139.49 42.896H140.604V41.896ZM141.132 37V36H140.234L140.138 36.8928L141.132 37ZM144.012 37V38H145.012V37H144.012ZM144.012 31.72L143.908 30.7254L143.012 30.8194V31.72H144.012ZM149.964 31.096H150.964V29.9857L149.86 30.1014L149.964 31.096ZM149.964 37H148.964V38H149.964V37ZM155.244 37H156.244V36H155.244V37ZM155.244 41.896V42.896H156.244V41.896H155.244ZM149.964 41.896V40.896H148.964V41.896H149.964ZM150.18 55.384L149.213 55.6399L149.215 55.6471L150.18 55.384ZM151.164 56.392L150.893 57.3547L150.907 57.3586L150.921 57.3621L151.164 56.392ZM155.244 56.584L156.238 56.6912L156.358 55.584H155.244V56.584ZM154.716 61.48V62.48H155.614L155.71 61.5872L154.716 61.48ZM150.444 60.48C149.068 60.48 148.05 60.2015 147.313 59.7273L146.23 61.4087C147.382 62.1505 148.811 62.48 150.444 62.48V60.48ZM147.323 59.7338C146.522 59.2043 145.955 58.5504 145.59 57.7691L143.778 58.6149C144.309 59.7536 145.133 60.6837 146.221 61.4022L147.323 59.7338ZM145.59 57.7691C145.203 56.939 145.012 56.0831 145.012 55.192H143.012C143.012 56.3809 143.269 57.525 143.778 58.6149L145.59 57.7691ZM145.012 55.192V41.896H143.012V55.192H145.012ZM144.012 40.896H140.604V42.896H144.012V40.896ZM141.598 42.0032L142.126 37.1072L140.138 36.8928L139.61 41.7888L141.598 42.0032ZM141.132 38H144.012V36H141.132V38ZM145.012 37V31.72H143.012V37H145.012ZM144.116 32.7145L150.068 32.0905L149.86 30.1014L143.908 30.7254L144.116 32.7145ZM148.964 31.096V37H150.964V31.096H148.964ZM149.964 38H155.244V36H149.964V38ZM154.244 37V41.896H156.244V37H154.244ZM155.244 40.896H149.964V42.896H155.244V40.896ZM148.964 41.896V52.744H150.964V41.896H148.964ZM148.964 52.744C148.964 53.9704 149.034 54.9617 149.213 55.6399L151.147 55.1281C151.038 54.7183 150.964 53.9496 150.964 52.744H148.964ZM149.215 55.6471C149.448 56.502 150.031 57.1122 150.893 57.3547L151.435 55.4293C151.273 55.3838 151.2 55.322 151.145 55.1209L149.215 55.6471ZM150.921 57.3621C151.56 57.5218 152.48 57.584 153.612 57.584V55.584C152.504 55.584 151.792 55.5182 151.406 55.4219L150.921 57.3621ZM153.612 57.584H155.244V55.584H153.612V57.584ZM154.25 56.4768L153.722 61.3728L155.71 61.5872L156.238 56.6912L154.25 56.4768ZM154.716 60.48H150.444V62.48H154.716V60.48ZM160.8 60.64L160.321 61.518L160.331 61.5235L160.8 60.64ZM158.28 58.168L157.416 58.6711L158.28 58.168ZM158.28 50.8L157.444 50.2516L157.441 50.255L158.28 50.8ZM160.776 48.376L161.306 49.224L161.309 49.2218L160.776 48.376ZM164.136 46.84L164.429 47.7961L164.437 47.7936L164.136 46.84ZM167.712 46L167.565 45.0109L167.563 45.0112L167.712 46ZM170.832 45.688L170.868 46.6874L171.878 46.6513L171.831 45.6415L170.832 45.688ZM169.776 42.688L169.078 43.404L169.776 42.688ZM163.368 42.208L163.643 43.1696L163.653 43.1666L163.368 42.208ZM159.936 43.576L158.942 43.6843L159.096 45.0981L160.374 44.4749L159.936 43.576ZM159.408 38.728L158.969 37.8296L158.338 38.1381L158.414 38.8363L159.408 38.728ZM163.728 37.144L163.493 36.172L163.49 36.1726L163.728 37.144ZM172.776 37.576L173.219 36.6794V36.6794L172.776 37.576ZM175.776 40.672L174.879 41.1152L174.882 41.1192L175.776 40.672ZM177 55.36L176.02 55.5617L176.022 55.5675L177 55.36ZM177.624 56.368L177.196 57.2717L177.624 56.368ZM179.712 56.584L180.706 56.6912L180.826 55.584H179.712V56.584ZM179.184 61.48V62.48H180.082L180.178 61.5872L179.184 61.48ZM174.624 61.12L174.947 60.1734L174.934 60.1691L174.624 61.12ZM172.848 60.16L172.205 60.9262L172.848 60.16ZM171.648 58.696L172.527 58.2189L171.848 56.9683L170.901 58.0308L171.648 58.696ZM168.456 60.76L168.796 61.7005L168.802 61.6982L168.456 60.76ZM168.768 56.512L169.096 57.4568L169.104 57.4538L169.113 57.4507L168.768 56.512ZM170.88 55.192L171.568 55.9175L171.88 55.6217V55.192H170.88ZM170.88 49.72H171.88V48.6762L170.837 48.7209L170.88 49.72ZM167.52 50.272L167.245 49.3105L167.52 50.272ZM164.712 51.688L164.073 50.9184L164.712 51.688ZM164.352 56.224L163.668 56.9535L163.674 56.9593L163.68 56.965L164.352 56.224ZM164.304 60.48C163.175 60.48 162.17 60.2346 161.268 59.7565L160.331 61.5235C161.542 62.1654 162.872 62.48 164.304 62.48V60.48ZM161.279 59.7621C160.388 59.2763 159.679 58.5843 159.144 57.6649L157.416 58.6711C158.129 59.8957 159.1 60.8517 160.321 61.5179L161.279 59.7621ZM159.144 57.6649C158.627 56.7766 158.344 55.6629 158.344 54.28H156.344C156.344 55.9371 156.685 57.4154 157.416 58.6711L159.144 57.6649ZM158.344 54.28C158.344 53.0766 158.618 52.1144 159.118 51.345L157.441 50.255C156.694 51.4056 156.344 52.7634 156.344 54.28H158.344ZM159.116 51.3484C159.674 50.4974 160.4 49.7901 161.306 49.224L160.246 47.528C159.104 48.2419 158.166 49.1506 157.444 50.2516L159.116 51.3484ZM161.309 49.2218C162.273 48.614 163.312 48.1386 164.429 47.7961L163.843 45.8839C162.56 46.2774 161.359 46.826 160.242 47.5302L161.309 49.2218ZM164.437 47.7936C165.607 47.424 166.748 47.1565 167.861 46.9888L167.563 45.0112C166.34 45.1955 165.097 45.4879 163.835 45.8864L164.437 47.7936ZM167.859 46.9891C169.017 46.8169 170.019 46.7177 170.868 46.6874L170.796 44.6886C169.853 44.7223 168.774 44.8311 167.565 45.0109L167.859 46.9891ZM171.831 45.6415C171.761 44.1449 171.372 42.8478 170.474 41.972L169.078 43.404C169.46 43.7762 169.775 44.4791 169.833 45.7345L171.831 45.6415ZM170.474 41.972C169.552 41.0726 168.135 40.752 166.512 40.752V42.752C167.961 42.752 168.72 43.0554 169.078 43.404L170.474 41.972ZM166.512 40.752C165.344 40.752 164.2 40.9178 163.083 41.2494L163.653 43.1666C164.584 42.8902 165.536 42.752 166.512 42.752V40.752ZM163.093 41.2465C162.013 41.5551 160.813 42.0359 159.498 42.6771L160.374 44.4749C161.619 43.8681 162.707 43.4369 163.643 43.1695L163.093 41.2465ZM160.93 43.4677L160.402 38.6197L158.414 38.8363L158.942 43.6843L160.93 43.4677ZM159.847 39.6264C161.228 38.9514 162.6 38.4491 163.965 38.1154L163.49 36.1726C161.975 36.5429 160.468 37.0966 158.969 37.8296L159.847 39.6264ZM163.963 38.116C165.342 37.7825 166.736 37.616 168.144 37.616V35.616C166.576 35.616 165.025 35.8015 163.493 36.172L163.963 38.116ZM168.144 37.616C169.818 37.616 171.204 37.915 172.333 38.4726L173.219 36.6794C171.756 35.957 170.053 35.616 168.144 35.616V37.616ZM172.333 38.4726C173.413 39.0057 174.263 39.8674 174.88 41.1152L176.672 40.2288C175.881 38.6286 174.731 37.4263 173.219 36.6794L172.333 38.4726ZM174.882 41.1192C175.491 42.3383 175.832 44.0314 175.832 46.264H177.832C177.832 43.8566 177.469 41.8217 176.67 40.2248L174.882 41.1192ZM175.832 46.264V52.744H177.832V46.264H175.832ZM175.832 52.744C175.832 53.9524 175.887 54.9112 176.02 55.5617L177.979 55.1583C177.889 54.7208 177.832 53.9356 177.832 52.744H175.832ZM176.022 55.5675C176.159 56.2153 176.474 56.9299 177.196 57.2717L178.052 55.4643C178.103 55.4883 178.111 55.515 178.09 55.4816C178.065 55.4404 178.018 55.3421 177.978 55.1525L176.022 55.5675ZM177.196 57.2717C177.697 57.5091 178.311 57.584 178.944 57.584V55.584C178.425 55.584 178.159 55.5149 178.052 55.4643L177.196 57.2717ZM178.944 57.584H179.712V55.584H178.944V57.584ZM178.718 56.4768L178.19 61.3728L180.178 61.5872L180.706 56.6912L178.718 56.4768ZM179.184 60.48H177.024V62.48H179.184V60.48ZM177.024 60.48C176.216 60.48 175.528 60.3717 174.947 60.1735L174.301 62.0665C175.128 62.3483 176.04 62.48 177.024 62.48V60.48ZM174.934 60.1691C174.353 59.9801 173.877 59.7183 173.491 59.3938L172.205 60.9262C172.81 61.4337 173.519 61.8119 174.314 62.0709L174.934 60.1691ZM173.491 59.3938C173.089 59.0572 172.77 58.6668 172.527 58.2189L170.769 59.1731C171.134 59.8452 171.615 60.4308 172.205 60.9262L173.491 59.3938ZM170.901 58.0308C170.247 58.7646 169.333 59.3705 168.11 59.8218L168.802 61.6982C170.267 61.1575 171.48 60.3874 172.395 59.3612L170.901 58.0308ZM168.116 59.8195C166.899 60.2594 165.63 60.48 164.304 60.48V62.48C165.858 62.48 167.357 62.2206 168.796 61.7005L168.116 59.8195ZM166.8 57.92C167.485 57.92 168.259 57.7469 169.096 57.4568L168.44 55.5672C167.708 55.8211 167.171 55.92 166.8 55.92V57.92ZM169.113 57.4507C170.028 57.1143 170.848 56.6003 171.568 55.9175L170.192 54.4665C169.663 54.9677 169.075 55.3337 168.423 55.5733L169.113 57.4507ZM171.88 55.192V49.72H169.88V55.192H171.88ZM170.837 48.7209C169.636 48.7724 168.438 48.9697 167.245 49.3105L167.795 51.2335C168.842 50.9343 169.884 50.7636 170.923 50.7191L170.837 48.7209ZM167.245 49.3105C166.017 49.6614 164.95 50.1906 164.073 50.9184L165.351 52.4576C165.977 51.9374 166.783 51.5226 167.795 51.2335L167.245 49.3105ZM164.073 50.9184C163.102 51.7247 162.584 52.7866 162.584 54.04H164.584C164.584 53.4054 164.818 52.8993 165.351 52.4576L164.073 50.9184ZM162.584 54.04C162.584 55.1814 162.886 56.22 163.668 56.9535L165.036 55.4945C164.794 55.268 164.584 54.8506 164.584 54.04H162.584ZM163.68 56.965C164.461 57.6727 165.577 57.92 166.8 57.92V55.92C165.783 55.92 165.267 55.7033 165.023 55.483L163.68 56.965ZM181.106 61L180.255 60.4756L179.316 62H181.106V61ZM194.114 39.88L195.069 39.5829L194.416 37.4834L193.263 39.3556L194.114 39.88ZM194.786 42.04V43.04H196.145L195.741 41.7429L194.786 42.04ZM182.21 42.04H181.21V43.04H182.21V42.04ZM182.21 37V36H181.21V37H182.21ZM202.082 37L202.934 37.5244L203.873 36H202.082V37ZM189.074 58.12L188.153 58.509L188.908 60.2969L189.926 58.6444L189.074 58.12ZM188.162 55.96V54.96H186.654L187.241 56.349L188.162 55.96ZM202.178 55.96H203.178V54.96H202.178V55.96ZM202.178 61V62H203.178V61H202.178ZM181.958 61.5244L194.966 40.4044L193.263 39.3556L180.255 60.4756L181.958 61.5244ZM193.159 40.1771L193.831 42.3371L195.741 41.7429L195.069 39.5829L193.159 40.1771ZM194.786 41.04H182.21V43.04H194.786V41.04ZM183.21 42.04V37H181.21V42.04H183.21ZM182.21 38H202.082V36H182.21V38ZM201.231 36.4756L188.223 57.5956L189.926 58.6444L202.934 37.5244L201.231 36.4756ZM189.995 57.731L189.083 55.571L187.241 56.349L188.153 58.509L189.995 57.731ZM188.162 56.96H202.178V54.96H188.162V56.96ZM201.178 55.96V61H203.178V55.96H201.178ZM202.178 60H181.106V62H202.178V60ZM207.347 60.64L206.868 61.518L206.878 61.5235L207.347 60.64ZM204.827 58.168L203.963 58.6711L204.827 58.168ZM204.827 50.8L203.991 50.2516L203.988 50.255L204.827 50.8ZM207.323 48.376L207.853 49.224L207.856 49.2218L207.323 48.376ZM210.683 46.84L210.976 47.7961L210.984 47.7936L210.683 46.84ZM214.259 46L214.112 45.0109L214.11 45.0112L214.259 46ZM217.379 45.688L217.415 46.6874L218.425 46.6513L218.378 45.6415L217.379 45.688ZM216.323 42.688L215.625 43.404L216.323 42.688ZM209.915 42.208L210.19 43.1696L210.199 43.1666L209.915 42.208ZM206.483 43.576L205.489 43.6843L205.643 45.0981L206.921 44.4749L206.483 43.576ZM205.955 38.728L205.516 37.8296L204.885 38.1381L204.961 38.8363L205.955 38.728ZM210.275 37.144L210.04 36.172L210.037 36.1726L210.275 37.144ZM219.323 37.576L219.766 36.6794V36.6794L219.323 37.576ZM222.323 40.672L221.426 41.1152L221.428 41.1192L222.323 40.672ZM223.547 55.36L222.567 55.5617L222.569 55.5675L223.547 55.36ZM224.171 56.368L223.743 57.2717L224.171 56.368ZM226.259 56.584L227.253 56.6912L227.372 55.584H226.259V56.584ZM225.731 61.48V62.48H226.629L226.725 61.5872L225.731 61.48ZM221.171 61.12L221.494 60.1734L221.48 60.1691L221.171 61.12ZM219.395 60.16L218.752 60.9262L219.395 60.16ZM218.195 58.696L219.074 58.2189L218.395 56.9683L217.448 58.0308L218.195 58.696ZM215.003 60.76L215.343 61.7005L215.349 61.6982L215.003 60.76ZM215.315 56.512L215.643 57.4568L215.651 57.4538L215.66 57.4507L215.315 56.512ZM217.427 55.192L218.115 55.9175L218.427 55.6217V55.192H217.427ZM217.427 49.72H218.427V48.6762L217.384 48.7209L217.427 49.72ZM214.067 50.272L213.792 49.3105L214.067 50.272ZM211.259 51.688L210.62 50.9184L211.259 51.688ZM210.899 56.224L210.215 56.9535L210.221 56.9593L210.227 56.965L210.899 56.224ZM210.851 60.48C209.722 60.48 208.717 60.2346 207.815 59.7565L206.878 61.5235C208.089 62.1654 209.419 62.48 210.851 62.48V60.48ZM207.826 59.7621C206.935 59.2763 206.226 58.5843 205.691 57.6649L203.963 58.6711C204.675 59.8957 205.647 60.8517 206.868 61.5179L207.826 59.7621ZM205.691 57.6649C205.174 56.7766 204.891 55.6629 204.891 54.28H202.891C202.891 55.9371 203.232 57.4154 203.963 58.6711L205.691 57.6649ZM204.891 54.28C204.891 53.0766 205.165 52.1144 205.665 51.345L203.988 50.255C203.24 51.4056 202.891 52.7634 202.891 54.28H204.891ZM205.663 51.3484C206.221 50.4974 206.947 49.7901 207.853 49.224L206.793 47.528C205.651 48.2419 204.713 49.1506 203.991 50.2516L205.663 51.3484ZM207.856 49.2218C208.82 48.614 209.859 48.1386 210.976 47.7961L210.39 45.8839C209.107 46.2774 207.906 46.826 206.789 47.5302L207.856 49.2218ZM210.984 47.7936C212.154 47.424 213.295 47.1565 214.408 46.9888L214.11 45.0112C212.886 45.1955 211.644 45.4879 210.382 45.8864L210.984 47.7936ZM214.406 46.9891C215.564 46.8169 216.566 46.7177 217.415 46.6874L217.343 44.6886C216.4 44.7223 215.321 44.8311 214.112 45.0109L214.406 46.9891ZM218.378 45.6415C218.308 44.1449 217.919 42.8478 217.021 41.972L215.625 43.404C216.006 43.7762 216.322 44.4791 216.38 45.7345L218.378 45.6415ZM217.021 41.972C216.099 41.0726 214.682 40.752 213.059 40.752V42.752C214.508 42.752 215.267 43.0554 215.625 43.404L217.021 41.972ZM213.059 40.752C211.891 40.752 210.747 40.9178 209.63 41.2494L210.199 43.1666C211.131 42.8902 212.083 42.752 213.059 42.752V40.752ZM209.64 41.2465C208.56 41.5551 207.36 42.0359 206.045 42.6771L206.921 44.4749C208.166 43.8681 209.254 43.4369 210.19 43.1695L209.64 41.2465ZM207.477 43.4677L206.949 38.6197L204.961 38.8363L205.489 43.6843L207.477 43.4677ZM206.394 39.6264C207.775 38.9514 209.147 38.4491 210.512 38.1154L210.037 36.1726C208.522 36.5429 207.015 37.0966 205.516 37.8296L206.394 39.6264ZM210.51 38.116C211.889 37.7825 213.283 37.616 214.691 37.616V35.616C213.123 35.616 211.572 35.8015 210.04 36.172L210.51 38.116ZM214.691 37.616C216.365 37.616 217.751 37.915 218.88 38.4726L219.766 36.6794C218.303 35.957 216.6 35.616 214.691 35.616V37.616ZM218.88 38.4726C219.959 39.0057 220.81 39.8674 221.426 41.1152L223.219 40.2288C222.428 38.6286 221.278 37.4263 219.766 36.6794L218.88 38.4726ZM221.428 41.1192C222.038 42.3383 222.379 44.0314 222.379 46.264H224.379C224.379 43.8566 224.016 41.8217 223.217 40.2248L221.428 41.1192ZM222.379 46.264V52.744H224.379V46.264H222.379ZM222.379 52.744C222.379 53.9524 222.433 54.9112 222.567 55.5617L224.526 55.1583C224.436 54.7208 224.379 53.9356 224.379 52.744H222.379ZM222.569 55.5675C222.706 56.2153 223.021 56.9299 223.743 57.2717L224.599 55.4643C224.65 55.4883 224.658 55.515 224.637 55.4816C224.612 55.4404 224.565 55.3421 224.525 55.1525L222.569 55.5675ZM223.743 57.2717C224.244 57.5091 224.858 57.584 225.491 57.584V55.584C224.972 55.584 224.706 55.5149 224.599 55.4643L223.743 57.2717ZM225.491 57.584H226.259V55.584H225.491V57.584ZM225.265 56.4768L224.737 61.3728L226.725 61.5872L227.253 56.6912L225.265 56.4768ZM225.731 60.48H223.571V62.48H225.731V60.48ZM223.571 60.48C222.763 60.48 222.075 60.3717 221.493 60.1735L220.848 62.0665C221.675 62.3483 222.587 62.48 223.571 62.48V60.48ZM221.48 60.1691C220.9 59.9801 220.424 59.7183 220.037 59.3938L218.752 60.9262C219.357 61.4337 220.066 61.8119 220.861 62.0709L221.48 60.1691ZM220.037 59.3938C219.636 59.0572 219.317 58.6668 219.074 58.2189L217.316 59.1731C217.681 59.8452 218.162 60.4308 218.752 60.9262L220.037 59.3938ZM217.448 58.0308C216.794 58.7646 215.88 59.3705 214.657 59.8218L215.349 61.6982C216.814 61.1575 218.027 60.3874 218.941 59.3612L217.448 58.0308ZM214.663 59.8195C213.446 60.2594 212.177 60.48 210.851 60.48V62.48C212.404 62.48 213.904 62.2206 215.343 61.7005L214.663 59.8195ZM213.347 57.92C214.031 57.92 214.806 57.7469 215.643 57.4568L214.987 55.5672C214.255 55.8211 213.718 55.92 213.347 55.92V57.92ZM215.66 57.4507C216.575 57.1143 217.395 56.6003 218.115 55.9175L216.739 54.4665C216.21 54.9677 215.622 55.3337 214.97 55.5733L215.66 57.4507ZM218.427 55.192V49.72H216.427V55.192H218.427ZM217.384 48.7209C216.182 48.7724 214.985 48.9697 213.792 49.3105L214.342 51.2335C215.389 50.9343 216.431 50.7636 217.47 50.7191L217.384 48.7209ZM213.792 49.3105C212.564 49.6614 211.497 50.1906 210.62 50.9184L211.897 52.4576C212.524 51.9374 213.33 51.5226 214.342 51.2335L213.792 49.3105ZM210.62 50.9184C209.649 51.7247 209.131 52.7866 209.131 54.04H211.131C211.131 53.4054 211.365 52.8993 211.897 52.4576L210.62 50.9184ZM209.131 54.04C209.131 55.1814 209.432 56.22 210.215 56.9535L211.583 55.4945C211.341 55.268 211.131 54.8506 211.131 54.04H209.131ZM210.227 56.965C211.008 57.6727 212.124 57.92 213.347 57.92V55.92C212.33 55.92 211.813 55.7033 211.57 55.483L210.227 56.965Z" fill="black"/>
<path d="M18.5055 18.9438C6.28712 31.4117 0 38.2508 0 39.0981C0 39.7639 0.948999 41.2165 2.07594 42.3664L4.15187 44.4242L2.07594 46.603C0.948999 47.8135 0 49.3266 0 49.9318C0 51.2028 37.0703 89.5747 38.2565 89.5747C39.0276 89.5747 77.1062 50.7186 77.1062 49.8713C77.1062 49.5687 76.0385 48.1767 74.7337 46.9057L72.3612 44.5452L74.7337 42.0638C76.0385 40.7323 77.1062 39.2192 77.1062 38.735C77.1062 38.1903 68.7431 29.2933 58.5414 18.8833C44.1285 4.17612 39.68 8.55327e-06 38.5531 8.55327e-06C37.3668 8.55327e-06 32.9777 4.17612 18.5055 18.9438ZM56.8806 20.2148L74.8523 38.5534L56.5841 57.0736L38.2565 75.5938L20.1662 57.1946L2.07594 38.735L20.1662 20.2754C30.1307 10.1074 38.3751 1.81571 38.5531 1.81571C38.731 1.81571 46.9754 10.1074 56.8806 20.2148Z" fill="black"/>
<path d="M24.0215 24.8146L10.3796 38.735L24.0215 52.6554C31.4949 60.2814 37.9006 66.5758 38.2565 66.5758C38.6124 66.5758 45.0181 60.3419 52.4915 52.6554L66.1333 38.735L52.788 24.9357C45.4333 17.3097 39.0275 11.0153 38.553 11.0153C38.0785 10.9548 31.4949 17.1282 24.0215 24.8146ZM45.374 32.0774L51.8983 38.735L45.374 45.3926C41.8152 49.024 38.6124 52.0502 38.2565 52.0502C37.9599 52.0502 34.8164 49.145 31.3169 45.5742L24.9112 39.0376L31.5542 32.259C35.2315 28.5066 38.3751 25.4199 38.553 25.4199C38.731 25.4199 41.8152 28.3855 45.374 32.0774Z" fill="black"/>
<path d="M35.884 36.314L33.5708 38.735L35.9433 41.2164L38.3751 43.6979L40.5697 41.7612C41.7559 40.6717 42.7049 39.3402 42.7049 38.735C42.7049 37.8877 39.0869 33.8931 38.3751 33.8931C38.2565 33.8931 37.1295 34.9825 35.884 36.314Z" fill="black"/>
</svg>
