<svg width="62" height="62" viewBox="0 0 62 62" fill="none" xmlns="http://www.w3.org/2000/svg">
<path d="M27.125 31C27.125 33.1401 28.8599 34.875 31 34.875C33.1401 34.875 34.875 33.1401 34.875 31C34.875 28.8599 33.1401 27.125 31 27.125C28.8599 27.125 27.125 28.8599 27.125 31Z" fill="#231F20" stroke="#231F20" stroke-width="2" stroke-linecap="round" stroke-linejoin="round"/>
<path d="M27.125 11.625C27.125 13.7651 28.8599 15.5 31 15.5C33.1401 15.5 34.875 13.7651 34.875 11.625C34.875 9.4849 33.1401 7.75 31 7.75C28.8599 7.75 27.125 9.4849 27.125 11.625Z" fill="#231F20" stroke="#231F20" stroke-width="2" stroke-linecap="round" stroke-linejoin="round"/>
<path d="M27.125 50.375C27.125 52.5151 28.8599 54.25 31 54.25C33.1401 54.25 34.875 52.5151 34.875 50.375C34.875 48.2349 33.1401 46.5 31 46.5C28.8599 46.5 27.125 48.2349 27.125 50.375Z" fill="#231F20" stroke="#231F20" stroke-width="2" stroke-linecap="round" stroke-linejoin="round"/>
</svg>
